<?xml version="1.0" standalone="no"?>
<!DOCTYPE svg PUBLIC "-//W3C//DTD SVG 20010904//EN"
 "http://www.w3.org/TR/2001/REC-SVG-20010904/DTD/svg10.dtd">
<svg version="1.0" xmlns="http://www.w3.org/2000/svg"
 width="157.000000pt" height="157.000000pt" viewBox="0 0 157.000000 157.000000"
 preserveAspectRatio="xMidYMid meet">
<metadata>
Created by potrace 1.11, written by Peter Selinger 2001-2013
</metadata>
<g transform="translate(0.000000,157.000000) scale(0.100000,-0.100000)"
fill="#000000" stroke="none">
<path d="M237 1558 c-55 -12 -108 -42 -150 -84 -20 -21 -35 -39 -34 -41 2 -1
81 -3 177 -4 103 -1 202 -7 240 -15 185 -39 315 -171 339 -345 22 -162 -19
-293 -123 -393 -38 -37 -145 -96 -173 -96 -7 0 -13 -2 -13 -4 0 -3 38 -44 85
-92 l85 -87 1 44 c1 24 1 70 0 102 l-2 57 134 0 c153 0 219 -15 259 -57 93
-98 46 -269 -82 -299 -19 -4 -73 -8 -120 -8 l-85 -1 0 -110 0 -110 275 0 275
0 57 28 c65 32 121 90 151 156 21 45 21 59 21 591 0 531 0 546 -21 591 -30 66
-86 124 -151 156 l-57 28 -525 1 c-289 0 -542 -3 -563 -8z"/>
<path d="M2 1273 l0 -53 172 0 c186 -1 243 -12 303 -60 56 -45 78 -96 78 -180
0 -91 -22 -140 -83 -187 -51 -39 -115 -53 -242 -53 l-100 0 -1 -142 c-1 -79
-2 -159 -3 -178 l-1 -35 -60 0 -60 0 2 -77 c4 -126 61 -214 173 -266 53 -25
62 -26 273 -28 l217 -2 1 41 c0 23 0 70 0 104 l0 62 -173 175 c-95 96 -195
196 -221 223 l-48 49 73 -1 c152 -2 247 31 314 109 104 121 97 334 -14 449
-80 83 -141 99 -398 101 l-201 1 -1 -52z"/>
<path d="M130 980 l0 -130 95 0 c141 0 190 27 200 111 8 56 -17 105 -65 131
-27 14 -57 18 -132 18 l-98 0 0 -130z"/>
<path d="M772 414 l2 -106 94 4 c88 3 95 5 118 31 36 42 34 109 -5 148 -28 28
-33 29 -120 29 l-90 0 1 -106z"/>
</g>
</svg>
